<?xml version="1.0" encoding="utf-8"?>
<!-- Generator: Adobe Illustrator 16.2.1, SVG Export Plug-In . SVG Version: 6.00 Build 0)  -->
<!DOCTYPE svg PUBLIC "-//W3C//DTD SVG 1.1//EN" "http://www.w3.org/Graphics/SVG/1.1/DTD/svg11.dtd">
<svg version="1.1" id="Layer_1" xmlns="http://www.w3.org/2000/svg" xmlns:xlink="http://www.w3.org/1999/xlink" x="0px" y="0px"
	 width="612px" height="792px" viewBox="0 0 612 792" enable-background="new 0 0 612 792" xml:space="preserve">
<g>
	<g>
		<g>
			<rect x="204.976" y="482.84" width="6.159" height="27.213"/>
			<polygon points="273.734,510.053 273.734,488.224 265.41,488.224 265.41,482.84 288.193,482.84 288.193,488.224 279.891,488.224 
				279.891,510.053 			"/>
			<polygon points="302.916,510.053 302.916,482.84 321.054,482.84 321.054,488.224 309.072,488.224 309.072,493.453 
				319.355,493.453 319.355,498.84 309.072,498.84 309.072,504.67 321.747,504.67 321.747,510.053 			"/>
			<polygon points="459.826,510.053 459.826,488.224 451.498,488.224 451.498,482.84 474.284,482.84 474.284,488.224 
				465.982,488.224 465.982,510.053 			"/>
			<rect x="490.108" y="482.84" width="6.156" height="27.213"/>
			<polygon points="551.636,510.053 551.636,482.84 569.778,482.84 569.778,488.224 557.792,488.224 557.792,493.453 
				568.08,493.453 568.08,498.84 557.792,498.84 557.792,504.67 570.468,504.67 570.468,510.053 			"/>
			<path d="M424.97,510.564c-7.766,0-14.076-6.314-14.076-14.078c0-7.76,6.311-14.072,14.076-14.072
				c5.984,0,11.331,3.811,13.291,9.476l0.326,0.954h-6.179l-0.207-0.37c-1.459-2.629-4.233-4.262-7.231-4.262
				c-4.566,0-8.286,3.714-8.286,8.274c0,4.565,3.72,8.276,8.286,8.276c2.998,0,5.767-1.632,7.231-4.256l0.201-0.375h6.185
				l-0.326,0.954C436.301,506.754,430.954,510.564,424.97,510.564z"/>
			<polygon points="247.087,482.843 247.087,499.564 235.458,482.843 229.278,482.843 229.278,510.053 235.458,510.053 
				235.458,493.297 246.997,510.053 247.087,510.025 247.087,510.053 253.266,510.053 253.266,482.843 			"/>
			<path d="M351.438,510.053h7.451l-5.783-8.229c3.358-1.609,5.695-5.015,5.695-8.986c0-5.492-4.429-9.941-9.913-9.986v-0.012
				h-10.397v0.003v27.21h6.179v-7.223h1.692L351.438,510.053z M344.67,489.019h4.165v0.009c2.096,0.014,3.788,1.711,3.788,3.811
				c0,2.099-1.692,3.796-3.788,3.811v0.002h-4.165V489.019z"/>
			<path d="M392.262,510.053h6.703l-10.794-27.213h-5.72l-10.795,27.213h6.703l2.471-6.23h8.961L392.262,510.053z M383.152,497.968
				l2.159-5.439l2.157,5.439H383.152z"/>
			<polygon points="530.858,482.84 523.906,500.365 516.955,482.84 510.252,482.84 521.047,510.053 526.766,510.053 537.561,482.84 
							"/>
		</g>
	</g>
	<path fill="#101820" d="M564.29,376.356c-8.625-8.732-19.088-13.159-31.278-13.59h-56.8l-11.491,37.446l-11.426-37.213l0.071-0.233
		h-0.142h-33.528h-0.143l0.071,0.233l-11.42,37.213l-11.497-37.446h-33.67l5.095,16.599c-1.361-1.712-2.81-3.387-4.447-4.986
		c-9.501-9.733-21.199-14.6-34.981-14.612h-0.017h-0.023h-0.012c-13.683,0-25.396,4.875-35.025,14.612
		c-4.156,4.106-7.368,8.615-9.75,13.47c-1.124-6.031-3.975-11.333-8.618-15.889c-5.494-5.605-12.07-8.629-19.728-9.166h-50.896
		c11.633,12.018,18.805,28.38,18.805,46.428c0,17.714-6.911,33.805-18.167,45.758h31.177v-24.907l14.226,24.907h33.965
		l-16.605-29.434c1.187-0.863,3.453-2.587,6.582-5.281c1.834-1.533,3.368-3.382,4.67-5.495c1.125,11.406,5.895,21.324,14.339,29.67
		c9.629,9.739,21.342,14.495,35.025,14.495c13.806,0,25.518-4.756,35.033-14.495c9.12-8.905,13.919-19.62,14.598-32.006
		l13.059,42.551h0.051h33.625h0.045l11.398-37.134l11.396,37.134h0.052h33.624h0.046l19.402-63.216v63.214h32.03
		c0.095,0,0.191-0.015,0.287-0.015h0.009c0.015,0,0.015,0,0.015,0c11.953-0.393,22.415-4.805,30.968-13.464
		c9.171-8.953,13.594-19.849,13.594-32.574C577.884,396.197,573.461,385.418,564.29,376.356z M254.348,397.406
		c0,0.211,0,0.211,0,0.211c0,0.221,0,0.221,0,0.437v0.432c-0.219,1.721-0.974,3.124-2.377,4.523
		c-1.294,1.299-2.907,2.161-4.849,2.161h-10.608c-0.018-0.006-0.044-0.009-0.06-0.009h-0.003v-15.628h10.671
		c1.941,0.107,3.555,0.863,4.849,2.263c1.622,1.513,2.266,3.129,2.377,5.287V397.406z M341.297,421.935
		c-3.479,3.597-7.534,5.338-12.645,5.338c-4.866,0-9.16-1.741-12.522-5.338c-3.595-3.362-5.331-7.655-5.331-12.528
		c0-4.983,1.736-9.16,5.331-12.755c3.362-3.484,7.656-5.218,12.522-5.218c5.11,0,9.166,1.734,12.645,5.218
		c3.48,3.595,5.34,7.771,5.34,12.755C346.637,414.279,344.777,418.572,341.297,421.935z M544.016,421.332
		c-3.346,3.453-7.554,5.176-12.19,5.176h-1.292v-35.052c0.325-0.108,0.866-0.108,1.292-0.108c4.637,0,8.845,1.727,12.19,5.179
		c3.452,3.448,5.176,7.548,5.176,12.403C549.191,413.778,547.468,417.987,544.016,421.332z"/>
	<path fill="#0F1F19" d="M144.239,421.8c3.479,3.485,7.656,5.225,12.645,5.225c4.992,0,9.279-1.739,12.642-5.225
		c1.511-1.505,2.669-3.129,3.594-4.873h33.058c-1.624,10.444-6.257,19.607-14.265,27.379c-9.61,9.723-21.297,14.477-34.947,14.495
		c-0.125,0-0.248-0.004-0.369-0.004c-0.423,0-0.849-0.015-1.27-0.028c-8.894-0.306-17.227-2.877-24.376-7.164
		c-3.195-2.006-6.227-4.431-9.098-7.299c-9.743-9.625-14.496-21.341-14.496-35.03c0-13.69,4.753-25.402,14.496-35.029
		c9.726-9.73,21.308-14.595,34.966-14.614c0.088,0.006,0.176,0.003,0.264,0.006h0.045c1.756,0.045,3.437,0.137,5.072,0.256
		c11.426,1.118,21.359,5.891,29.713,14.352c8.007,7.772,12.76,16.822,14.265,27.376h-32.938c-1.044-1.862-2.203-3.594-3.713-5.104
		c-3.362-3.481-7.65-5.22-12.642-5.22c-4.989,0-9.166,1.739-12.645,5.22c-3.364,3.595-5.1,7.773-5.1,12.758
		C139.139,414.147,140.875,418.444,144.239,421.8z"/>
	<g>
		<circle fill="#48997C" cx="91.723" cy="309.723" r="4.34"/>
		<circle fill="#48997C" cx="113.188" cy="317.091" r="6.873"/>
		<circle fill="#48997C" cx="112.984" cy="287.937" r="5.971"/>
		<path fill="#48997C" d="M139.343,303.169c4.761,0,8.62-3.86,8.62-8.621c0-2.056-0.719-3.942-1.92-5.424
			c1.787-0.107,3.203-1.588,3.203-3.401c0-1.882-1.526-3.408-3.408-3.408c-1.883,0-3.408,1.526-3.408,3.408
			c0,0.28,0.034,0.552,0.098,0.812c-0.986-0.392-2.061-0.608-3.185-0.608c-4.762,0-8.622,3.859-8.622,8.621
			C130.721,299.309,134.582,303.169,139.343,303.169z"/>
		<ellipse fill="#48997C" cx="160.721" cy="310.188" rx="6.815" ry="6.786"/>
		<ellipse fill="#48997C" cx="210.817" cy="339.78" rx="5.884" ry="5.912"/>
		<circle fill="#48997C" cx="186.963" cy="301.043" r="4.34"/>
		<circle fill="#48997C" cx="173.362" cy="288.665" r="6.874"/>
		<circle fill="#48997C" cx="56.451" cy="360.488" r="4.66"/>
		<ellipse fill="#48997C" cx="57.878" cy="456.487" rx="5.913" ry="5.883"/>
		<path fill="#48997C" d="M38.65,436.623c-2.426,0-4.393,1.973-4.393,4.394c0,2.404,1.945,4.344,4.344,4.344
			c2.399,0,4.366-1.939,4.395-4.344C43.022,438.596,41.077,436.623,38.65,436.623z"/>
		<circle fill="#48997C" cx="63.383" cy="338.469" r="9.204"/>
		<ellipse fill="#48997C" cx="51.646" cy="391.041" rx="7.427" ry="7.368"/>
		<circle fill="#48997C" cx="82.547" cy="330.314" r="5.884"/>
		<circle fill="#48997C" cx="69.558" cy="358.741" r="3.378"/>
		<path fill="#48997C" d="M89.889,409.222c0-36.879,29.896-66.776,66.775-66.776c16.665,0,31.892,6.119,43.591,16.215
			c3.191-0.895,5.534-3.818,5.534-7.294c0-3.585-2.495-6.579-5.838-7.365c-0.187-0.044-0.869-0.152-1.003-0.196
			c-0.582-0.191-1.004-0.763-1.004-1.403c0-0.298,0.092-0.574,0.247-0.802c0.181-0.265,0.583-0.606,0.737-0.888
			c0.265-0.485,0.415-1.04,0.415-1.631c0-1.882-1.526-3.408-3.408-3.408s-3.408,1.526-3.408,3.408c0,0.974,0.408,1.852,1.062,2.473
			c0.234,0.221,0.696,0.463,1,0.567l0.027,0.01c0.303,0.105,0.774,0.364,0.938,0.639c0.112,0.19,0.177,0.414,0.177,0.651
			c0,0.415-0.295,0.756-0.609,0.987c-0.259,0.191-0.736,0.409-1.004,0.587c-0.414,0.275-0.799,0.589-1.153,0.937
			c-1.029-1.714-2.901-2.86-5.04-2.86c-0.652,0-1.278,0.106-1.865,0.303c0.339-0.88,0.525-1.837,0.525-2.837
			c0-4.098-3.123-7.467-7.118-7.855c0.875-0.788,1.519-1.829,1.813-3.007c0.074-0.297,0.121-0.962,0.143-1.456
			c0.013-0.321,0.114-0.823,0.298-1.087c0.62-0.894,1.654-1.479,2.824-1.479c0.783,0,1.503,0.261,2.08,0.7
			c0.255,0.195,0.674,0.488,0.982,0.581c0.635,0.191,1.309,0.292,2.006,0.292c3.862,0,6.99-3.129,6.99-6.99
			c0-3.86-3.128-6.99-6.99-6.99c-3.398,0-6.23,2.427-6.86,5.642c-0.062,0.315-0.104,0.838-0.055,1.156
			c0.031,0.201,0.073,0.4,0.104,0.555c0.036,0.175,0.054,0.356,0.054,0.541c0,1.297-0.912,2.382-2.13,2.646
			c-0.314,0.069-0.845,0.038-1.136-0.094c-0.275-0.128-0.567-0.309-0.798-0.463c-0.953-0.638-2.1-1.012-3.334-1.012
			c-1.795,0-3.405,0.789-4.506,2.038c-1.117-2.374-3.53-4.018-6.329-4.018c-3.122,0-5.767,2.047-6.664,4.873
			c-1.138-0.725-2.488-1.145-3.938-1.145c-0.667,0-1.312,0.09-1.928,0.256c1.586-1.564,2.569-3.736,2.569-6.14
			c0-4.761-3.86-8.621-8.621-8.621s-8.622,3.86-8.622,8.621c0,0.848,0.122,1.665,0.35,2.438c-1.079-0.625-2.333-0.982-3.67-0.982
			c-4.053,0-7.339,3.286-7.339,7.339c0,1.879,0.707,3.593,1.867,4.892c0.208,0.233,0.697,0.552,1.13,0.796
			c0.42,0.237,1.184,0.363,1.659,0.45c2.223,0.409,3.908,2.356,3.908,4.698c0,2.638-2.138,4.776-4.778,4.776
			c-2.638,0-4.776-2.138-4.776-4.776c0-0.346,0.037-0.683,0.106-1.008c0.046-0.216,0.18-0.923,0.116-1.269
			c-0.348-1.832-1.676-3.315-3.442-3.793c-0.395-0.107-0.809-0.164-1.236-0.164c-0.113,0-0.227,0.004-0.339,0.012
			c-0.48,0.034-1.195,0.351-1.648,0.517c-0.507,0.186-1.054,0.287-1.625,0.287c-0.984,0-1.9-0.301-2.658-0.818
			c-0.398-0.271-1.006-0.764-1.446-0.961c-0.873-0.391-1.839-0.609-2.857-0.609c-3.861,0-6.99,3.129-6.99,6.99
			c0,1.708,0.612,3.272,1.629,4.485c-0.039,0-0.077,0-0.115,0c-1.735,0-3.322,0.633-4.544,1.677v-0.046
			c0-3.764-3.064-6.815-6.844-6.815c-3.78,0-6.845,3.051-6.845,6.815s3.065,6.815,6.845,6.815c0.417,0,0.824-0.037,1.218-0.108
			c0.295-0.069,1.116-0.249,1.271-0.293c0.542-0.156,1.113-0.24,1.704-0.24c3.394,0,6.146,2.751,6.146,6.146
			c0,3.394-2.752,6.146-6.146,6.146c-3.394,0-6.178-2.752-6.145-6.146c0.003-0.377-0.105-0.927-0.22-1.246
			c-1.165-2.644-3.822-4.491-6.916-4.491c-4.167,0-7.544,3.351-7.544,7.485c0,3.536,2.472,6.501,5.794,7.284
			c-2.123,0.327-3.953,1.532-5.101,3.229c-1.617-1.31-3.684-2.096-5.936-2.096c-5.18,0-9.378,4.16-9.378,9.292
			c0,4.935,3.884,8.971,8.789,9.273c-1.19,1.307-1.916,3.04-1.916,4.94c0,2.341,0.869,4.384,2.664,5.626
			c0.832,0.576,2.464,1.101,2.981,1.329c1.684,0.738,2.859,2.42,2.859,4.376c0,2.638-2.138,4.776-4.777,4.776
			c-1.382,0-2.627-0.588-3.499-1.525c-0.37-0.397-0.833-1.203-1.963-1.83c-1.276-0.709-2.616-1.13-4.178-1.13
			c-5.163,0-9.349,4.159-9.349,9.29c0,1.896,0.57,3.656,1.55,5.125c-0.424-0.095-0.866-0.145-1.317-0.145
			c-0.974,0-1.891,0.23-2.705,0.64c0.017-0.191,0.025-0.386,0.025-0.58c0-3.732-3.038-6.758-6.786-6.758
			c-3.749,0-6.787,3.025-6.787,6.758c0,3.731,3.038,6.756,6.787,6.756c1.266,0,2.453-0.345,3.467-0.946
			c-0.001,0.034-0.001,0.067-0.001,0.103c0,3.297,2.687,5.971,6,5.971c1.931,0,3.648-0.908,4.745-2.317
			c0.297-0.38,0.661-1.077,0.814-1.535c0.131-0.393,0.196-1.119,0.324-1.584c0.377-1.366,1.63-2.369,3.117-2.369
			c0.026,0,0.054,0,0.082,0.001c0.48,0.012,1.25,0.108,1.726,0.021c0.522-0.095,1.032-0.232,1.521-0.41
			c0.454-0.165,1.106-0.632,1.572-0.736c0.12-0.027,0.244-0.041,0.372-0.041c0.933,0,1.689,0.756,1.689,1.689
			c0,0.163-0.023,0.32-0.066,0.47c-0.132,0.458-0.64,1.082-0.82,1.529c-0.33,0.823-0.512,1.721-0.512,2.66
			c0,3.297,2.254,6.009,5.279,6.908c0.95,0.282,2.418,0.008,2.895-0.053c0.205-0.026,0.412-0.04,0.622-0.04
			c2.703,0,4.893,2.191,4.893,4.894c0,2.703-2.19,4.893-4.893,4.893c-2.405,0-4.405-1.735-4.815-4.022
			c-0.086-0.476-0.331-1.924-0.331-1.924c-0.806-2.854-3.438-4.946-6.562-4.946c-3.764,0-6.815,3.039-6.815,6.786
			c0,3.748,3.052,6.786,6.815,6.786c2.055,0,3.897-0.905,5.146-2.336c0.196-0.278,0.518-0.46,0.883-0.46
			c0.595,0,1.078,0.482,1.078,1.078c0,0.101-0.014,0.198-0.04,0.29l0.01,0.001c-0.171,0.681-0.262,1.394-0.262,2.126
			c0,3.271,1.804,6.123,4.473,7.621c-1.917,1.2-3.191,3.325-3.191,5.748c0,3.748,3.051,6.786,6.815,6.786
			c2.317,0,4.365-1.151,5.596-2.911c-0.002,0.077-0.003,0.154-0.003,0.23c0,4.022,3.286,7.282,7.339,7.282
			c3.474,0,6.384-2.394,7.146-5.608c0.148-0.627,0.078-1.473,0.078-1.876c0-1.496,1.214-2.709,2.709-2.709
			c1.496,0,2.709,1.213,2.709,2.709c0,0.957-0.497,1.799-1.248,2.281c-0.404,0.259-1.123,0.565-1.49,0.879
			c-1.926,1.64-3.146,4.078-3.146,6.8c0,0.084,0.06,0.584,0.06,0.758c0,1.303-1.057,2.358-2.36,2.358
			c-0.327,0-0.637-0.066-0.919-0.186c-0.442-0.187-1.073-0.667-1.536-0.801c-0.404-0.116-0.831-0.178-1.272-0.178
			c-2.526,0-4.574,2.034-4.574,4.543c0,2.51,2.047,4.545,4.574,4.545c1.709,0,3.2-0.934,3.984-2.314l0.029-0.052
			c0.229-0.424,0.312-1.216,0.478-1.666c0.349-0.945,1.257-1.619,2.324-1.619c0.588,0,1.13,0.206,1.555,0.55
			c0.374,0.302,0.858,0.924,1.243,1.213c0.842,0.631,1.798,1.118,2.832,1.423c-0.514,0.59-0.825,1.359-0.825,2.203
			c0,1.85,1.5,3.349,3.35,3.349s3.35-1.499,3.35-3.349c0-0.837-0.307-1.603-0.813-2.189c2.489-0.72,4.531-2.485,5.617-4.79
			c1.608,2.763,4.608,4.619,8.042,4.619c3.501,0,6.552-1.931,8.135-4.784c0,0,0.857-1.545,1.159-2.625
			C108.832,463.48,89.889,438.571,89.889,409.222z"/>
	</g>
</g>
</svg>
