<?xml version="1.0" encoding="utf-8"?>
<!-- Generator: Adobe Illustrator 16.2.1, SVG Export Plug-In . SVG Version: 6.00 Build 0)  -->
<!DOCTYPE svg PUBLIC "-//W3C//DTD SVG 1.1//EN" "http://www.w3.org/Graphics/SVG/1.1/DTD/svg11.dtd">
<svg version="1.1" id="Layer_1" xmlns="http://www.w3.org/2000/svg" xmlns:xlink="http://www.w3.org/1999/xlink" x="0px" y="0px"
	 width="612px" height="792px" viewBox="0 0 612 792" enable-background="new 0 0 612 792" xml:space="preserve">
<g>
	<path d="M313.084,437.237c4.888,4.896,10.756,7.34,17.765,7.34c7.013,0,13.036-2.443,17.76-7.34
		c2.123-2.114,3.75-4.396,5.049-6.847h46.443c-2.281,14.674-8.791,27.547-20.041,38.465c-13.5,13.659-29.92,20.338-49.097,20.363
		c-0.175,0-0.348-0.005-0.518-0.005c-0.594,0-1.192-0.021-1.783-0.04c-12.494-0.43-24.202-4.042-34.246-10.064
		c-4.488-2.818-8.748-6.225-12.782-10.254c-13.688-13.522-20.366-29.981-20.366-49.214c0-19.233,6.678-35.688,20.366-49.212
		c13.663-13.669,29.934-20.504,49.123-20.531c0.124,0.008,0.247,0.004,0.37,0.008h0.063c2.467,0.063,4.829,0.192,7.126,0.36
		c16.052,1.57,30.008,8.276,41.743,20.163c11.25,10.918,17.926,23.632,20.041,38.46h-46.275c-1.467-2.616-3.094-5.049-5.217-7.171
		c-4.724-4.892-10.747-7.334-17.76-7.334c-7.009,0-12.877,2.442-17.765,7.334c-4.727,5.05-7.164,10.92-7.164,17.923
		C305.92,426.486,308.357,432.522,313.084,437.237z"/>
	<g>
		<circle cx="239.305" cy="279.782" r="6.097"/>
		<circle cx="269.461" cy="290.133" r="9.656"/>
		<circle cx="269.175" cy="249.175" r="8.388"/>
		<path d="M306.207,270.575c6.689,0,12.11-5.423,12.11-12.112c0-2.888-1.01-5.539-2.697-7.62c2.511-0.15,4.5-2.231,4.5-4.778
			c0-2.644-2.144-4.788-4.788-4.788s-4.787,2.144-4.787,4.788c0,0.393,0.047,0.775,0.137,1.141
			c-1.385-0.551-2.895-0.854-4.474-0.854c-6.69,0-12.113,5.422-12.113,12.112C294.093,265.152,299.517,270.575,306.207,270.575z"/>
		<ellipse cx="336.239" cy="280.436" rx="9.575" ry="9.533"/>
		<ellipse cx="406.619" cy="322.009" rx="8.266" ry="8.306"/>
		<circle cx="373.106" cy="267.588" r="6.097"/>
		<circle cx="353.998" cy="250.198" r="9.656"/>
		<circle cx="189.753" cy="351.102" r="6.547"/>
		<ellipse cx="191.758" cy="485.968" rx="8.307" ry="8.265"/>
		<path d="M164.745,458.062c-3.409,0-6.171,2.771-6.171,6.173c0,3.378,2.732,6.103,6.103,6.103c3.371,0,6.134-2.725,6.174-6.103
			C170.886,460.833,168.154,458.062,164.745,458.062z"/>
		<circle cx="199.492" cy="320.168" r="12.93"/>
		<ellipse cx="183.001" cy="394.024" rx="10.434" ry="10.352"/>
		<circle cx="226.415" cy="308.71" r="8.266"/>
		<circle cx="208.167" cy="348.646" r="4.746"/>
		<path d="M236.729,419.566c0-51.812,42-93.813,93.812-93.813c23.411,0,44.804,8.597,61.24,22.78
			c4.482-1.257,7.774-5.364,7.774-10.248c0-5.037-3.504-9.242-8.201-10.347c-0.264-0.062-1.221-0.213-1.41-0.275
			c-0.816-0.269-1.41-1.072-1.41-1.971c0-0.419,0.129-0.807,0.346-1.127c0.255-0.372,0.82-0.852,1.035-1.247
			c0.372-0.682,0.583-1.461,0.583-2.292c0-2.644-2.143-4.787-4.788-4.787c-2.643,0-4.786,2.144-4.786,4.787
			c0,1.368,0.573,2.602,1.492,3.475c0.328,0.311,0.979,0.65,1.403,0.797l0.039,0.014c0.427,0.147,1.088,0.511,1.316,0.897
			c0.159,0.268,0.25,0.581,0.25,0.915c0,0.583-0.414,1.062-0.856,1.387c-0.363,0.268-1.034,0.575-1.41,0.825
			c-0.581,0.386-1.122,0.827-1.62,1.315c-1.446-2.408-4.076-4.018-7.081-4.018c-0.915,0-1.794,0.148-2.618,0.426
			c0.476-1.237,0.737-2.582,0.737-3.985c0-5.758-4.387-10.49-10-11.036c1.229-1.106,2.135-2.569,2.548-4.224
			c0.104-0.417,0.17-1.352,0.202-2.045c0.018-0.452,0.159-1.157,0.417-1.527c0.872-1.255,2.324-2.077,3.968-2.077
			c1.1,0,2.112,0.367,2.922,0.983c0.359,0.273,0.948,0.686,1.38,0.815c0.892,0.268,1.839,0.41,2.818,0.41
			c5.425,0,9.82-4.396,9.82-9.82c0-5.423-4.396-9.821-9.82-9.821c-4.774,0-8.753,3.41-9.637,7.927
			c-0.088,0.443-0.146,1.177-0.077,1.624c0.043,0.283,0.102,0.562,0.146,0.779c0.05,0.247,0.076,0.5,0.076,0.76
			c0,1.822-1.28,3.347-2.993,3.718c-0.441,0.097-1.188,0.054-1.595-0.132c-0.388-0.18-0.798-0.434-1.121-0.651
			c-1.339-0.896-2.95-1.421-4.684-1.421c-2.522,0-4.786,1.108-6.331,2.863c-1.569-3.335-4.961-5.645-8.893-5.645
			c-4.385,0-8.101,2.876-9.361,6.846c-1.598-1.018-3.495-1.609-5.532-1.609c-0.937,0-1.845,0.126-2.709,0.36
			c2.229-2.197,3.61-5.25,3.61-8.625c0-6.689-5.424-12.112-12.112-12.112s-12.113,5.423-12.113,12.112
			c0,1.191,0.171,2.339,0.492,3.426c-1.516-0.877-3.277-1.38-5.156-1.38c-5.694,0-10.311,4.616-10.311,10.311
			c0,2.64,0.993,5.047,2.623,6.872c0.293,0.328,0.98,0.775,1.588,1.118c0.59,0.333,1.663,0.511,2.33,0.633
			c3.123,0.574,5.49,3.311,5.49,6.6c0,3.706-3.004,6.709-6.712,6.709c-3.706,0-6.709-3.004-6.709-6.709
			c0-0.486,0.052-0.959,0.149-1.416c0.064-0.303,0.253-1.297,0.163-1.782c-0.488-2.573-2.354-4.658-4.835-5.329
			c-0.554-0.15-1.136-0.23-1.737-0.23c-0.159,0-0.318,0.006-0.476,0.017c-0.675,0.048-1.679,0.494-2.315,0.726
			c-0.712,0.261-1.48,0.402-2.282,0.402c-1.383,0-2.669-0.422-3.734-1.149c-0.559-0.38-1.413-1.073-2.031-1.351
			c-1.226-0.549-2.583-0.855-4.014-0.855c-5.424,0-9.82,4.396-9.82,9.82c0,2.4,0.86,4.598,2.289,6.302c-0.054,0-0.107,0-0.161,0
			c-2.438,0-4.667,0.889-6.384,2.356v-0.064c0-5.288-4.305-9.575-9.615-9.575c-5.31,0-9.616,4.287-9.616,9.575
			c0,5.289,4.306,9.575,9.616,9.575c0.585,0,1.157-0.052,1.711-0.152c0.415-0.097,1.568-0.35,1.787-0.412
			c0.761-0.219,1.563-0.337,2.393-0.337c4.768,0,8.634,3.865,8.634,8.634c0,4.768-3.866,8.634-8.634,8.634
			c-4.768,0-8.68-3.866-8.633-8.634c0.004-0.53-0.147-1.302-0.309-1.75c-1.636-3.714-5.369-6.31-9.715-6.31
			c-5.854,0-10.598,4.708-10.598,10.515c0,4.968,3.472,9.133,8.14,10.233c-2.982,0.459-5.553,2.152-7.167,4.537
			c-2.272-1.84-5.175-2.944-8.338-2.944c-7.277,0-13.175,5.844-13.175,13.053c0,6.933,5.457,12.604,12.348,13.028
			c-1.672,1.835-2.691,4.27-2.691,6.94c0,3.289,1.221,6.159,3.742,7.904c1.169,0.809,3.461,1.546,4.189,1.866
			c2.365,1.037,4.017,3.399,4.017,6.147c0,3.706-3.004,6.711-6.711,6.711c-1.941,0-3.691-0.826-4.916-2.144
			c-0.52-0.558-1.169-1.689-2.758-2.57c-1.792-0.996-3.675-1.588-5.87-1.588c-7.254,0-13.135,5.844-13.135,13.052
			c0,2.663,0.801,5.137,2.177,7.2c-0.595-0.134-1.216-0.203-1.85-0.203c-1.368,0-2.657,0.323-3.8,0.898
			c0.023-0.269,0.035-0.542,0.035-0.815c0-5.243-4.269-9.493-9.534-9.493c-5.266,0-9.534,4.25-9.534,9.493
			c0,5.242,4.268,9.491,9.534,9.491c1.779,0,3.446-0.484,4.872-1.329c-0.001,0.048-0.002,0.095-0.002,0.145
			c0,4.631,3.774,8.388,8.43,8.388c2.712,0,5.125-1.276,6.666-3.256c0.417-0.533,0.928-1.513,1.144-2.156
			c0.184-0.552,0.276-1.572,0.456-2.226c0.53-1.919,2.291-3.328,4.378-3.328c0.037,0,0.076,0,0.115,0.001
			c0.675,0.017,1.756,0.152,2.424,0.03c0.734-0.133,1.449-0.326,2.136-0.576c0.637-0.231,1.554-0.888,2.208-1.034
			c0.168-0.039,0.343-0.058,0.522-0.058c1.311,0,2.374,1.062,2.374,2.373c0,0.229-0.033,0.45-0.093,0.66
			c-0.185,0.644-0.898,1.521-1.152,2.148c-0.463,1.156-0.719,2.417-0.719,3.737c0,4.632,3.167,8.441,7.416,9.705
			c1.335,0.396,3.397,0.011,4.067-0.074c0.288-0.037,0.579-0.056,0.874-0.056c3.797,0,6.875,3.078,6.875,6.874
			c0,3.798-3.078,6.874-6.875,6.874c-3.378,0-6.188-2.438-6.765-5.651c-0.121-0.668-0.465-2.702-0.465-2.702
			c-1.133-4.01-4.831-6.949-9.219-6.949c-5.288,0-9.575,4.27-9.575,9.533c0,5.266,4.288,9.534,9.575,9.534
			c2.886,0,5.475-1.271,7.229-3.282c0.275-0.391,0.727-0.646,1.241-0.646c0.836,0,1.514,0.678,1.514,1.515
			c0,0.141-0.02,0.278-0.056,0.407l0.014,0.001c-0.241,0.957-0.368,1.958-0.368,2.987c0,4.596,2.534,8.602,6.284,10.706
			c-2.693,1.687-4.483,4.672-4.483,8.076c0,5.266,4.286,9.533,9.575,9.533c3.256,0,6.132-1.617,7.861-4.09
			c-0.003,0.108-0.005,0.217-0.005,0.324c0,5.65,4.616,10.23,10.311,10.23c4.88,0,8.969-3.362,10.039-7.879
			c0.208-0.881,0.109-2.069,0.109-2.636c0-2.102,1.706-3.806,3.806-3.806c2.102,0,3.806,1.704,3.806,3.806
			c0,1.345-0.698,2.527-1.752,3.205c-0.568,0.363-1.577,0.794-2.094,1.234c-2.706,2.304-4.42,5.729-4.42,9.553
			c0,0.118,0.083,0.821,0.083,1.065c0,1.83-1.484,3.312-3.315,3.312c-0.458,0-0.895-0.093-1.292-0.261
			c-0.621-0.262-1.507-0.937-2.157-1.125c-0.568-0.163-1.167-0.249-1.788-0.249c-3.549,0-6.426,2.857-6.426,6.382
			c0,3.526,2.876,6.386,6.426,6.386c2.401,0,4.495-1.312,5.597-3.252l0.041-0.072c0.323-0.596,0.438-1.709,0.672-2.341
			c0.49-1.328,1.766-2.274,3.265-2.274c0.827,0,1.588,0.289,2.184,0.771c0.525,0.425,1.205,1.299,1.747,1.704
			c1.183,0.887,2.526,1.571,3.979,1.999c-0.722,0.829-1.159,1.91-1.159,3.096c0,2.598,2.106,4.704,4.706,4.704
			c2.6,0,4.706-2.106,4.706-4.704c0-1.176-0.431-2.252-1.143-3.076c3.497-1.012,6.365-3.492,7.891-6.729
			c2.259,3.881,6.474,6.489,11.297,6.489c4.919,0,9.205-2.712,11.429-6.721c0,0,1.204-2.171,1.627-3.688
			C263.341,495.793,236.729,460.799,236.729,419.566z"/>
	</g>
</g>
</svg>
